<svg xmlns="http://www.w3.org/2000/svg" viewBox="0 0 512 512">
  <defs>
    <clipPath id="round">
      <rect x="0" y="0" width="512" height="512" rx="96" ry="96"/>
    </clipPath>
  </defs>

  <g clip-path="url(#round)">
    <!-- Background -->
    <rect width="512" height="512" fill="#f2efe9"/>

    <!-- Head -->
    <circle cx="256" cy="270" r="150" fill="#f1b37a"/>

    <!-- Hair -->
    <path d="M110 210c10-90 90-140 146-140s136 50 146 140v20H110z"
          fill="#2b2b2b"/>
    <path d="M150 170c40-50 170-50 210 0"
          stroke="#9e9e9e" stroke-width="8" fill="none" opacity="0.4"/>

    <!-- Glasses -->
    <rect x="155" y="235" width="90" height="60" rx="12"
          fill="none" stroke="#111" stroke-width="10"/>
    <rect x="267" y="235" width="90" height="60" rx="12"
          fill="none" stroke="#111" stroke-width="10"/>
    <line x1="245" y1="265" x2="267" y2="265"
          stroke="#111" stroke-width="10"/>

    <!-- Eyes -->
    <circle cx="200" cy="265" r="10" fill="#222"/>
    <circle cx="312" cy="265" r="10" fill="#222"/>

    <!-- Smile -->
    <path d="M215 320c20 18 62 18 82 0"
          stroke="#7a3b2e" stroke-width="6" fill="none"
          stroke-linecap="round"/>
  </g>
</svg>